Patient4_TMGait_0pt3_03_left_21_EMG.mot
version=1
nRows=13
nColumns=33
inDegrees=no
endheader
time	1LAddLong	2LGlutMax	3LGlutMed	4LIliopsoas	5LSemiMemb	6LBicFemLong	7LRecFem	8LVastMed	9LVastLat	10LGasMed	11LTibAnt	12lTibPost	13LPeroneusLong	14LSol	15LExtDigLong	16LFlexDigLong	17RAddLong	18RGlutMax	19RGlutMed	20RIliopsoas	21RSemiMemb	22RBicFemLong	23RRecFem	24RVastMed	25RVastLat	26RGasMed	27RTibAnt	28RTibPost	29RPeroneusLong	30RSol	31RExtDigLong	32RFlexDigLong
37.77	0.011749	-0.12207	-0.013733	-0.003967	-0.008392	-0.005035	0.055542	-0.03006	-0.014954	-0.085297	0.026398	-0.005341	-0.33569	-0.032349	-0.06485	-0.00351	0.030975	0.026093	-0.25452	-0.029449	-0.1001	-0.038452	0.15442	-0.01358	-0.2005	-0.005188	0.13931	-0.005341	0.062561	0.077209	-0.001068	-0.019379
37.771	0.003662	-0.12085	0.039063	0.011444	0.019531	-0.004883	0.039063	0.014038	0.001373	-0.09079	0.024567	-0.010529	-0.32105	-0.031281	-0.056305	-0.000153	0.002747	0.011749	-0.057526	0.13886	-0.087738	-0.006409	0.069885	0.018463	-0.066986	-0.007019	0.14923	-0.004883	0.011902	0.068054	0.002899	-0.024414
37.772	0.006409	-0.14038	0.045013	0.009766	0.050964	0.005493	0.058899	0.004425	-0.007782	-0.058136	0.003967	-0.003052	-0.019379	-0.022736	-0.020905	0.00946	-0.006714	0.046234	0.26504	0.13687	-0.071106	0.003052	-0.059814	0.083466	0.11368	0.000916	0.1889	-0.010681	0.001984	0.059052	0.000458	-0.018463
37.773	0.006256	-0.076752	0.03006	0.003357	0.036926	0.022583	0.061951	0.006104	0.015411	-0.018768	-0.007935	-0.002594	-0.036163	-0.019684	-0.012054	0.013733	-0.036011	0.042267	0.11368	0.093536	-0.013123	-0.025024	-0.20004	0.10513	0.15549	0.001678	0.37872	-0.008698	-0.090332	0.05127	0.001831	-0.016632
37.774	0.011902	-0.15488	-0.013733	0.003662	0.00885	0.014191	0.065308	-0.00412	0.019073	0.14282	-0.018158	-0.003815	-0.054474	-0.021362	0.002747	0.012512	-0.023651	0.015411	0.24735	0.026703	-0.005493	-0.09079	-0.3508	0.11673	0.18448	-0.003967	0.096283	-0.003204	0.080566	0.047455	-0.000458	-0.016785
37.775	0.001373	-0.12009	-0.010834	0.010376	-0.020447	0.042114	0.080719	0.005951	0.019684	0.21515	-0.02655	0.005188	0.03891	0.097961	0.045929	0.007019	-0.014954	0.0177	0.24918	-0.007172	-0.032196	-0.11139	-0.3363	0.18265	0.15564	-0.01358	0.25971	-0.004272	0.13565	0.053558	0.00351	-0.018768
37.776	0.001678	-0.10696	0.018158	0.008392	-0.035095	0.031281	0.069122	-0.007019	0.036316	0.046844	0.00061	-0.00351	0.029755	0.14206	0.072937	-0.049133	-0.002899	0.015564	0.23483	0.001831	-0.034485	-0.12344	-0.19959	0.16251	0.093231	-0.009613	0.4126	-0.005035	-0.045929	0.016327	0.001526	-0.011749
37.777	0.004272	-0.083466	0.10101	0.000763	-0.002899	0.02655	0.070343	-0.001678	0.056763	0.013123	0.000916	-0.002136	0.001984	0.084991	0.066528	-0.084076	-0.001373	-0.052032	0.15717	0.025482	-0.020599	-0.089874	-0.080261	0.28122	0.09903	-0.002441	-0.21881	-0.00824	0.22675	-0.024261	0.003052	-0.015106
37.778	0.002441	-0.098419	0.1445	0.007782	0.028687	-0.00946	0.075073	0.009003	0.033569	0.15182	-0.00824	-0.006561	0.061798	0.057678	0.034332	0.12466	0.008087	0.027008	-0.046844	0.008545	-0.0354	-0.060272	0.021057	0.30273	0.084534	-0.004883	-0.82474	-0.002594	0.27771	-0.061035	0.006256	-0.015869
37.779	0.004272	-0.1358	0.029144	0.030823	0.021057	-0.010376	-0.017853	0.009613	0.017548	0.20966	-0.001221	-0.003052	0.168	0.10941	0.040131	-0.11002	0.002899	-0.006714	0.13825	-0.020905	-0.00824	-0.045471	0.050659	0.2652	0.044403	-0.004578	-0.59158	-0.008698	0.14114	-0.068665	0.002594	-0.012665
37.78	0.002747	-0.092468	-0.040131	-0.001831	0.021057	-0.025787	-0.072174	0.0177	-0.021973	0.021973	-0.016785	0.000458	0.14801	0.10696	0.031586	0.080566	-0.006866	0.048676	0.048981	0.004425	0.017242	-0.024261	0.034637	0.19287	0.034027	-0.005188	-0.37872	-0.002289	0.29129	-0.070801	0.001526	-0.007629
37.781	-0.003815	-0.091553	-0.03479	-0.006256	-0.002747	-0.011902	-0.041504	0.018158	-0.11185	-0.033417	-0.007935	0.000458	0.13199	0.01297	0.00824	0.4306	0.010834	0.036163	-0.029755	-0.065308	-0.001068	-0.001068	0.025787	0.15457	0.012207	0.000458	-0.34378	-0.005798	0.26642	-0.042877	0.000305	-0.005951
37.782	0.00473	-0.075684	-0.071564	0.00351	-0.001221	0.010071	-0.03479	0.016785	0.005035	0.050812	0.00885	0.019531	0.063934	-0.20493	-0.005188	-0.04837	0.018616	0.00946	0.24735	-0.086975	-0.064545	0.034332	0.023651	0.14191	0.001526	0.003815	0.18585	-0.003815	0.043182	-0.047607	0.000458	-0.002289
